Coordinates
version=1
nRows=11
nColumns=40
inDegrees=yes

Units are S.I. units (second, meters, Newtons, ...)
Angles are in degrees.

endheader
time	pelvis_tilt	pelvis_list	pelvis_rotation	pelvis_tx	pelvis_ty	pelvis_tz	hip_flexion_r	hip_adduction_r	hip_rotation_r	knee_angle_r	knee_angle_r_beta	ankle_angle_r	subtalar_angle_r	mtp_angle_r	hip_flexion_l	hip_adduction_l	hip_rotation_l	knee_angle_l	knee_angle_l_beta	ankle_angle_l	subtalar_angle_l	mtp_angle_l	lumbar_extension	lumbar_bending	lumbar_rotation	arm_flex_r	arm_add_r	arm_rot_r	elbow_flex_r	pro_sup_r	wrist_flex_r	wrist_dev_r	arm_flex_l	arm_add_l	arm_rot_l	elbow_flex_l	pro_sup_l	wrist_flex_l	wrist_dev_l
     52.91000000	     -6.88743237	     -5.63060794	     12.42913548	      1.10492574	      0.92074402	      0.44787855	      4.92802584	      0.43710610	    -17.47433022	     17.16273611	     17.16273611	     15.92419140	     -6.52204646	     -1.51142496	     28.39991795	     -4.77241856	      4.03703326	     23.87320675	     23.87320675	      6.68882571	     -8.00287190	     -1.14551365	     -8.37776450	      2.81316879	      4.67400591	     62.06157607	    -19.53751542	      0.51416708	     87.15155225	     44.63210068	      0.00000000	      0.00000000	    -10.47229254	    -14.93163551	     24.22197719	     32.05647003	     43.99966177	      0.00000000	      0.00000000
     52.93057143	     -7.01607369	     -5.58596060	     11.82579434	      1.10561921	      0.92182508	      0.44358357	      4.89212363	     -0.07882159	    -17.54550554	     17.52478814	     17.52478814	     15.58415449	     -5.46704297	     -1.72827998	     27.87154479	     -4.75779142	      3.29518733	     23.63579745	     23.63579745	      7.20960448	     -7.66127731	     -0.92778128	     -8.22509726	      2.82101217	      4.85909771	     61.53392863	    -19.40920990	     -0.03753707	     84.52017655	     44.74440166	      0.00000000	      0.00000000	     -9.51442143	    -15.38262000	     24.06551920	     32.67469964	     44.05610142	      0.00000000	      0.00000000
     52.95114286	     -7.13543710	     -5.57518075	     11.15716283	      1.10627205	      0.92287136	      0.43947331	      5.03415156	     -0.56912050	    -17.42853336	     18.17382623	     18.17382623	     15.23111342	     -4.80244435	     -1.98261715	     27.34046781	     -4.78644348	      2.56515581	     23.39961921	     23.39961921	      7.65674223	     -7.47624460	     -0.79445217	     -8.09209376	      2.87460742	      4.74917689	     60.70844341	    -18.81957219	     -0.38217670	     82.35978085	     44.83252030	      0.00000000	      0.00000000	     -8.63941898	    -15.75351551	     23.95509412	     33.09983187	     44.10574113	      0.00000000	      0.00000000
     52.97171429	     -7.20479150	     -5.56844511	     10.45682098	      1.10694033	      0.92397199	      0.43539274	      5.27895456	     -1.08260615	    -17.17411136	     19.07269391	     19.07269391	     14.82738852	     -4.33639174	     -2.30516555	     26.73976088	     -4.81933126	      1.86939724	     23.13384173	     23.13384173	      8.05567379	     -7.37761048	     -0.75358046	     -7.99381832	      2.98483247	      4.68643079	     59.59499195	    -18.34645807	     -0.69876918	     80.40394100	     44.90933617	      0.00000000	      0.00000000	     -7.70596818	    -16.07147893	     23.81602420	     33.40634129	     44.15582410	      0.00000000	      0.00000000
     52.99228571	     -7.21085387	     -5.58648830	      9.72731699	      1.10764389	      0.92508514	      0.43139282	      5.60312862	     -1.61122072	    -16.92990287	     20.19654808	     20.19654808	     14.24212553	     -3.89494105	     -3.24423491	     26.10496420	     -4.88967629	      1.17168741	     22.93123162	     22.93123162	      8.48032686	     -7.31968838	     -0.62011649	     -7.89420686	      3.14091867	      4.21169593	     58.68325084	    -17.04069808	     -1.61770664	     77.02359235	     45.06472736	      0.00000000	      0.00000000	     -6.91273834	    -16.26320836	     23.61609027	     33.45378346	     44.25609743	      0.00000000	      0.00000000
     53.01285714	     -7.21143297	     -5.53733616	      8.92075832	      1.10834763	      0.92615575	      0.42752420	      6.21936488	     -2.25372896	    -16.39521745	     21.85441978	     21.85441978	     13.78248597	     -3.83120245	     -3.85510581	     25.38573629	     -4.89180198	      0.45590983	     22.62250909	     22.62250909	      8.80026907	     -7.40099649	     -0.61573208	     -7.86558415	      3.21332794	      4.25818161	     56.89065380	    -16.91187020	     -1.75367952	     75.48782485	     45.11634714	      0.00000000	      0.00000000	     -5.82029201	    -16.46971464	     23.36766292	     33.68030172	     44.31967642	      0.00000000	      0.00000000
     53.03342857	     -7.13563671	     -5.52029360	      8.09826178	      1.10909273	      0.92717701	      0.42369364	      6.88533003	     -2.88864367	    -15.84350965	     23.66180567	     23.66180567	     12.84393226	     -3.93090344	     -5.70620894	     24.68401069	     -4.89275554	     -0.10231513	     22.47905483	     22.47905483	      9.10513070	     -7.78554640	     -0.51363525	     -7.81144186	      3.35977165	      4.13322348	     55.19675682	    -16.17744484	     -2.76429792	     72.41596304	     45.25492362	      0.00000000	      0.00000000	     -4.58838896	    -16.42539744	     22.96797554	     33.19799350	     44.44242471	      0.00000000	      0.00000000
     53.05400000	     -7.00651706	     -5.45183600	      7.22911623	      1.10985604	      0.92811550	      0.41997667	      7.74508108	     -3.57761123	    -15.00956068	     25.83330381	     25.83330381	     11.51635372	     -4.57826932	     -8.48690420	     23.90337016	     -4.84153958	     -0.65996362	     22.31272348	     22.31272348	      9.42231654	     -8.23582300	     -0.32622792	     -7.85221424	      3.47768294	      3.91429380	     53.17790081	    -15.47736554	     -3.40781607	     69.87084740	     45.36061554	      0.00000000	      0.00000000	     -3.36203199	    -16.29975367	     22.28435111	     32.65845300	     44.62204962	      0.00000000	      0.00000000
     53.07457143	     -6.82265777	     -5.37875350	      6.32992633	      1.11060079	      0.92881136	      0.41633671	      8.90036874	     -4.34453760	    -14.11936290	     28.66342422	     28.66342422	     10.73894109	     -4.96011578	     -9.45358010	     23.18936219	     -4.79746732	     -1.25755769	     22.36779584	     22.36779584	      9.76414469	     -8.71679588	     -0.29976667	     -7.98248424	      3.63432916	      3.89217590	     50.56441897	    -15.33925996	     -3.37920435	     68.30838049	     45.40086480	      0.00000000	      0.00000000	     -2.17518321	    -16.33361197	     22.04818102	     32.88804388	     44.68073368	      0.00000000	      0.00000000
     53.09514286	     -6.60086994	     -5.36869409	      5.43163512	      1.11139927	      0.92927113	      0.41279571	     10.08767333	     -4.94619754	    -12.96780074	     31.38317724	     31.38317724	      8.61128817	     -6.41038391	    -13.61581328	     22.53833501	     -4.72030900	     -1.45873906	     22.59319998	     22.59319998	     10.18732383	     -9.79700517	      0.27300780	     -8.00825150	      3.86388299	      3.80117117	     48.18224446	    -14.67715651	     -4.37271739	     64.78617139	     45.54235583	      0.00000000	      0.00000000	     -0.54754870	    -15.99630038	     21.51927124	     31.71350005	     44.83187844	      0.00000000	      0.00000000
     53.11571429	     -6.20184621	     -5.27404952	      4.53506122	      1.11221855	      0.92947428	      0.40932225	     11.47292023	     -5.70452970	    -11.81495977	     34.89451548	     34.89451548	      7.47768376	     -7.04641132	    -14.51566398	     21.85096152	     -4.63641707	     -1.94325075	     23.11483566	     23.11483566	     10.64733366	    -10.54413437	      0.24088674	     -8.36065699	      4.05614282	      3.69863474	     45.20695605	    -14.46623580	     -4.23981385	     63.14675382	     45.57827300	      0.00000000	      0.00000000	      0.75908833	    -15.95264393	     21.32523338	     32.07217914	     44.88379663	      0.00000000	      0.00000000
